<?xml version="1.0" encoding="UTF-8"?>
<svg width="512" height="512" viewBox="0 0 512 512" fill="none" xmlns="http://www.w3.org/2000/svg">
  <rect width="512" height="512" rx="128" fill="#1F2937"/>
  <path d="M256 96C160.7 96 84 172.7 84 268C84 344.3 133.3 409.2 200.8 434.7C210.4 436.4 214.1 430.5 214.1 425.3C214.1 420.7 213.9 407.7 213.8 390.7C164.7 402.9 154.7 368.1 154.7 368.1C147 346.8 135.8 340.9 135.8 340.9C120.2 328.8 136.9 329.1 136.9 329.1C154.1 330.5 163 349 163 349C178.4 379.8 204.3 369 214.6 364C216.3 351.3 220.9 342.6 226 337.7C186.2 332.7 144.3 315.8 144.3 250.5C144.3 229.1 151.1 211.6 163.4 197.8C161.5 193 155.7 173.8 165.9 147.5C165.9 147.5 182.8 142.2 213.6 163.7C227.9 159.4 243.2 157.2 258.4 157.1C273.6 157.2 288.9 159.4 303.2 163.7C334 142.2 350.8 147.5 350.8 147.5C361.1 173.8 355.3 193 353.4 197.8C365.7 211.6 372.5 229.1 372.5 250.5C372.5 316 330.5 332.6 290.6 337.5C297.1 343.6 302.9 355.5 302.9 373.7C302.9 399.7 302.6 419 302.6 425.3C302.6 430.5 306.2 436.5 316 434.7C383.5 409.1 432.7 344.3 432.7 268C432.7 172.7 356 96 260.7 96H256Z" fill="white"/>
</svg> 